<svg width="30" height="35" viewBox="0 0 30 35" fill="none" xmlns="http://www.w3.org/2000/svg">
<path d="M10 0.600098C8.93913 0.600098 7.92172 1.02152 7.17157 1.77167C6.42143 2.52182 6 3.53923 6 4.6001V15.0141C6.65376 14.829 7.32331 14.7052 8 14.6441V4.6001C8 4.06966 8.21071 3.56096 8.58579 3.18588C8.96086 2.81081 9.46957 2.6001 10 2.6001H18V9.6001C18 10.3957 18.3161 11.1588 18.8787 11.7214C19.4413 12.284 20.2044 12.6001 21 12.6001H28V28.6001C28 29.1305 27.7893 29.6392 27.4142 30.0143C27.0391 30.3894 26.5304 30.6001 26 30.6001H18.8C18.4359 31.3125 17.9953 31.9831 17.486 32.6001H26C27.0609 32.6001 28.0783 32.1787 28.8284 31.4285C29.5786 30.6784 30 29.661 30 28.6001V11.4281C29.9993 10.6327 29.6828 9.87017 29.12 9.3081L21.292 1.4781C20.7296 0.916061 19.9671 0.600267 19.172 0.600098H10ZM27.586 10.6001H21C20.7348 10.6001 20.4804 10.4947 20.2929 10.3072C20.1054 10.1197 20 9.86531 20 9.6001V3.0141L27.586 10.6001Z" fill="white"/>
<path d="M18 25.6001C18 27.987 17.0518 30.2762 15.364 31.9641C13.6761 33.6519 11.3869 34.6001 9 34.6001C6.61305 34.6001 4.32387 33.6519 2.63604 31.9641C0.948211 30.2762 0 27.987 0 25.6001C0 23.2131 0.948211 20.924 2.63604 19.2361C4.32387 17.5483 6.61305 16.6001 9 16.6001C11.3869 16.6001 13.6761 17.5483 15.364 19.2361C17.0518 20.924 18 23.2131 18 25.6001ZM10 21.6001C10 21.3349 9.89464 21.0805 9.70711 20.893C9.51957 20.7055 9.26522 20.6001 9 20.6001C8.73478 20.6001 8.48043 20.7055 8.29289 20.893C8.10536 21.0805 8 21.3349 8 21.6001V24.6001H5C4.73478 24.6001 4.48043 24.7055 4.29289 24.893C4.10536 25.0805 4 25.3349 4 25.6001C4 25.8653 4.10536 26.1197 4.29289 26.3072C4.48043 26.4947 4.73478 26.6001 5 26.6001H8V29.6001C8 29.8653 8.10536 30.1197 8.29289 30.3072C8.48043 30.4947 8.73478 30.6001 9 30.6001C9.26522 30.6001 9.51957 30.4947 9.70711 30.3072C9.89464 30.1197 10 29.8653 10 29.6001V26.6001H13C13.2652 26.6001 13.5196 26.4947 13.7071 26.3072C13.8946 26.1197 14 25.8653 14 25.6001C14 25.3349 13.8946 25.0805 13.7071 24.893C13.5196 24.7055 13.2652 24.6001 13 24.6001H10V21.6001Z" fill="white"/>
</svg>
