<svg width="16" height="16" viewBox="0 0 16 16" fill="none" xmlns="http://www.w3.org/2000/svg">
<path d="M7.99325 14.6667C4.31222 14.663 1.3308 11.6766 1.33325 7.99556C1.33571 4.31453 4.32111 1.33211 8.00214 1.33334C11.6832 1.33456 14.6666 4.31897 14.6666 8C14.6644 11.6836 11.6768 14.6681 7.99325 14.6667ZM2.66659 8.11467C2.69813 11.0488 5.09399 13.4064 8.02828 13.3907C10.9626 13.3748 13.3329 10.9917 13.3329 8.05733C13.3329 5.123 10.9626 2.73985 8.02828 2.724C5.09399 2.7083 2.69813 5.06584 2.66659 8V8.11467ZM8.66659 11.3333H7.33325V10H8.66659V11.3333Z" fill="#333333"/>
<path d="M6.29321 5.46617C6.67988 5.04324 7.13988 4.78833 7.67321 4.70143C7.83321 4.67825 8.03988 4.66666 8.21322 4.66666C9.04655 4.66666 9.64655 4.93896 10.0132 5.48355C10.2132 5.77902 10.3199 6.12083 10.3332 6.509C10.3332 6.82764 10.2766 7.11152 10.1632 7.36064C10.0499 7.60397 9.90988 7.78647 9.74322 7.90813C9.57655 8.02979 9.40988 8.13118 9.24322 8.21229C9.08322 8.2876 8.94655 8.33395 8.83322 8.35133L8.66322 8.3774V9.33333H7.33321V7.42147C8.03321 7.40989 8.52988 7.33747 8.74322 7.20422C8.94988 7.06517 9.05322 6.82764 9.05322 6.49162C9.05322 6.18456 8.88322 5.9702 8.54322 5.84854C8.40988 5.80219 8.27322 5.77902 8.13322 5.77902C8.01988 5.78481 7.35988 5.92675 7.11321 6.20484L6.29321 5.46617Z" fill="#333333"/>
</svg>
